<svg width="537" height="254" viewBox="0 0 537 254" fill="none" xmlns="http://www.w3.org/2000/svg">
<path d="M9.86613 115.519C8.14406 115.519 6.77654 115.013 5.76356 114C4.75057 112.886 4.24408 111.366 4.24408 109.442V47.4472C4.24408 39.0394 6.0168 31.746 9.56223 25.5668C13.209 19.2863 18.3752 14.4747 25.0608 11.1318C31.7465 7.78898 39.5971 6.11757 48.6126 6.11757C57.6282 6.11757 65.4281 7.78898 72.0125 11.1318C78.6982 14.4747 83.8137 19.2863 87.3591 25.5668C91.0059 31.746 92.8292 39.0394 92.8292 47.4472V109.442C92.8292 111.366 92.3227 112.886 91.3098 114C90.3981 115.013 89.0306 115.519 87.2072 115.519C85.4851 115.519 84.067 115.013 82.9527 114C81.9397 112.886 81.4332 111.366 81.4332 109.442V46.9913C81.4332 37.1654 78.5462 29.5174 72.7722 24.0473C66.9982 18.5772 58.945 15.8422 48.6126 15.8422C38.4828 15.8422 30.4296 18.6279 24.453 24.1993C18.5778 29.7707 15.6401 37.368 15.6401 46.9913V109.442C15.6401 111.366 15.1336 112.886 14.1206 114C13.1077 115.013 11.6895 115.519 9.86613 115.519ZM119.489 21.9177C117.894 21.9177 116.449 21.27 115.154 19.9744C113.858 18.6789 113.21 17.2339 113.21 15.6394C113.21 13.9452 113.858 12.5002 115.154 11.3043C116.449 10.0088 117.894 9.36105 119.489 9.36105C121.083 9.36105 122.578 10.0088 123.973 11.3043C125.368 12.5999 126.066 14.0449 126.066 15.6394C126.066 17.2339 125.368 18.6789 123.973 19.9744C122.578 21.27 121.083 21.9177 119.489 21.9177ZM119.489 115.495C116.997 115.495 115.751 113.9 115.751 110.711V44.0414C115.751 40.8524 116.997 39.2579 119.489 39.2579C122.08 39.2579 123.375 40.8524 123.375 44.0414V110.711C123.375 113.9 122.08 115.495 119.489 115.495ZM181.831 115.495C174.157 115.495 167.331 113.9 161.351 110.711C155.471 107.522 150.887 103.038 147.599 97.2578C144.41 91.4777 142.815 84.8008 142.815 77.2269C142.815 69.7527 144.41 63.1754 147.599 57.495C150.887 51.7149 155.471 47.2304 161.351 44.0414C167.331 40.8524 174.157 39.2579 181.831 39.2579C196.38 39.2579 207.044 43.2441 213.82 51.2166C214.518 51.9142 214.867 52.7613 214.867 53.7579C214.867 54.9537 214.368 55.9005 213.372 56.5981C212.873 57.0963 212.176 57.3455 211.279 57.3455C210.083 57.3455 208.937 56.7974 207.841 55.7012C204.951 52.5122 201.413 50.1702 197.227 48.6754C193.042 47.1806 187.91 46.4331 181.831 46.4331C171.765 46.4331 164.042 49.074 158.66 54.3558C153.279 59.6376 150.588 67.2613 150.588 77.2269C150.588 87.1925 153.279 94.866 158.66 100.247C164.142 105.629 171.865 108.32 181.831 108.32C193.49 108.32 202.16 105.23 207.841 99.0516C208.937 97.9554 210.083 97.4073 211.279 97.4073C212.076 97.4073 212.774 97.7062 213.372 98.3042C214.269 99.0018 214.717 99.8987 214.717 100.995C214.717 101.892 214.318 102.739 213.521 103.536C209.136 107.622 204.353 110.662 199.171 112.655C193.989 114.548 188.209 115.495 181.831 115.495ZM266.294 115.495C257.624 115.495 250.299 113.701 244.32 110.113C238.44 106.426 234.055 101.692 231.165 95.9124C228.275 90.1324 226.83 83.9537 226.83 77.3764C226.83 70.7991 228.275 64.6204 231.165 58.8403C234.055 53.0603 238.44 48.3764 244.32 44.7888C250.299 41.1015 257.624 39.2579 266.294 39.2579C274.964 39.2579 282.239 41.1015 288.118 44.7888C294.098 48.3764 298.533 53.0603 301.423 58.8403C304.313 64.6204 305.758 70.7991 305.758 77.3764C305.758 83.9537 304.313 90.1324 301.423 95.9124C298.533 101.692 294.098 106.426 288.118 110.113C282.239 113.701 274.964 115.495 266.294 115.495ZM266.294 108.32C275.861 108.32 283.534 105.629 289.314 100.247C295.094 94.7664 297.984 87.1427 297.984 77.3764C297.984 67.6101 295.094 60.0362 289.314 54.6548C283.534 49.1737 275.861 46.4331 266.294 46.4331C256.727 46.4331 249.053 49.1737 243.273 54.6548C237.493 60.0362 234.603 67.6101 234.603 77.3764C234.603 87.1427 237.493 94.7664 243.273 100.247C249.053 105.629 256.727 108.32 266.294 108.32ZM329.209 115.495C326.718 115.495 325.472 113.9 325.472 110.711V5.32497C325.472 2.13598 326.718 0.541477 329.209 0.541477C331.8 0.541477 333.096 2.13598 333.096 5.32497V110.711C333.096 113.9 331.8 115.495 329.209 115.495ZM392.58 115.495C379.724 115.495 369.858 112.156 362.982 105.479C356.205 98.7028 352.817 89.086 352.817 76.6289C352.817 69.0551 354.412 62.4778 357.601 56.897C360.79 51.2166 365.374 46.8816 371.353 43.8919C377.332 40.8026 384.358 39.2579 392.43 39.2579C400.004 39.2579 406.681 40.5036 412.461 42.995C418.341 45.3867 422.925 48.7751 426.214 53.1599C429.502 57.5448 431.147 62.5774 431.147 68.2578C431.147 72.1444 430.15 75.1839 428.157 77.3764C426.164 79.5688 423.324 80.665 419.637 80.665H360.889C360.889 89.3351 363.68 96.1117 369.26 100.995C374.841 105.878 382.614 108.32 392.58 108.32C398.858 108.32 404.14 107.622 408.425 106.227C412.81 104.732 416.796 102.29 420.384 98.9021C421.978 97.5069 423.174 96.8093 423.972 96.8093C424.47 96.8093 425.068 97.0585 425.765 97.5567C426.862 98.4536 427.41 99.4004 427.41 100.397C427.41 101.294 427.061 102.091 426.363 102.789C422.576 106.974 417.793 110.163 412.013 112.356C406.332 114.448 399.855 115.495 392.58 115.495ZM417.544 73.9382C419.637 73.9382 421.131 73.4898 422.028 72.5929C422.925 71.696 423.374 70.2011 423.374 68.1083C423.374 64.0224 422.028 60.3352 419.338 57.0465C416.747 53.6582 413.059 51.0671 408.276 49.2733C403.592 47.3799 398.31 46.4331 392.43 46.4331C382.365 46.4331 374.592 48.8249 369.111 53.6084C363.729 58.3919 361.039 65.1685 361.039 73.9382H417.544ZM44.8216 253.412C39.0794 253.412 34.5138 251.2 31.1249 246.775C27.736 242.257 24.5354 235.009 21.5231 225.03L1.331 158.1C1.04859 157.064 0.907388 156.217 0.907388 155.558C0.907388 153.016 2.55476 151.746 5.84951 151.746C7.54395 151.746 8.81478 152.122 9.662 152.875C10.5092 153.534 11.2152 154.852 11.78 156.829L31.8309 224.042C34.0902 231.573 36.1612 236.891 38.0439 239.998C40.0207 243.01 42.28 244.516 44.8216 244.516C47.2692 244.516 49.4813 242.963 51.4582 239.857C53.435 236.75 55.5531 231.478 57.8123 224.042L77.8632 156.688C78.428 154.805 79.1341 153.534 79.9813 152.875C80.8285 152.122 82.0993 151.746 83.7938 151.746C87.0885 151.746 88.7359 153.016 88.7359 155.558C88.7359 156.217 88.5947 157.064 88.3123 158.1L67.979 225.03C64.7784 235.479 61.4366 242.822 57.9535 247.058C54.5647 251.294 50.1874 253.412 44.8216 253.412ZM132.75 253.495C122.784 253.495 115.061 251.352 109.58 247.067C104.098 242.782 101.358 236.802 101.358 229.129C101.358 221.455 104.198 215.426 109.879 211.041C115.559 206.656 123.432 204.464 133.497 204.464C139.676 204.464 145.256 205.311 150.239 207.005C155.222 208.699 158.909 211.041 161.301 214.031V203.119C161.301 196.94 159.258 192.306 155.172 189.217C151.186 186.028 145.256 184.433 137.384 184.433C128.016 184.433 119.545 186.775 111.971 191.459C110.676 192.256 109.679 192.655 108.982 192.655C108.384 192.655 107.686 192.406 106.889 191.907C105.992 191.309 105.544 190.363 105.544 189.067C105.544 187.971 105.892 187.124 106.59 186.526C110.277 183.636 114.812 181.394 120.193 179.799C125.674 178.105 131.305 177.258 137.085 177.258C147.25 177.258 155.073 179.55 160.554 184.134C166.134 188.718 168.925 195.246 168.925 203.717V248.711C168.925 251.9 167.679 253.495 165.188 253.495C162.696 253.495 161.451 251.9 161.451 248.711V241.985C158.361 245.672 154.325 248.512 149.342 250.505C144.459 252.498 138.928 253.495 132.75 253.495ZM132.75 246.32C141.42 246.32 148.346 244.675 153.528 241.387C158.81 237.998 161.451 233.564 161.451 228.083C161.451 222.9 158.959 218.864 153.976 215.974C148.994 213.084 142.018 211.639 133.049 211.639C125.275 211.639 119.346 213.134 115.26 216.124C111.174 219.113 109.131 223.449 109.131 229.129C109.131 240.589 117.004 246.32 132.75 246.32ZM196.146 253.495C193.655 253.495 192.409 251.9 192.409 248.711V143.325C192.409 140.136 193.655 138.541 196.146 138.541C198.737 138.541 200.033 140.136 200.033 143.325V248.711C200.033 251.9 198.737 253.495 196.146 253.495ZM259.517 253.495C246.661 253.495 236.795 250.156 229.919 243.479C223.142 236.703 219.754 227.086 219.754 214.629C219.754 207.055 221.349 200.478 224.538 194.897C227.727 189.217 232.311 184.882 238.29 181.892C244.27 178.803 251.295 177.258 259.367 177.258C266.941 177.258 273.618 178.504 279.398 180.995C285.278 183.387 289.862 186.775 293.151 191.16C296.44 195.545 298.084 200.577 298.084 206.258C298.084 210.144 297.087 213.184 295.094 215.376C293.101 217.569 290.261 218.665 286.574 218.665H227.826C227.826 227.335 230.617 234.112 236.197 238.995C241.778 243.878 249.551 246.32 259.517 246.32C265.795 246.32 271.077 245.622 275.362 244.227C279.747 242.732 283.733 240.29 287.321 236.902C288.915 235.507 290.111 234.809 290.909 234.809C291.407 234.809 292.005 235.058 292.702 235.557C293.799 236.454 294.347 237.4 294.347 238.397C294.347 239.294 293.998 240.091 293.3 240.789C289.513 244.974 284.73 248.163 278.95 250.356C273.269 252.448 266.792 253.495 259.517 253.495ZM284.481 211.938C286.574 211.938 288.068 211.49 288.965 210.593C289.862 209.696 290.311 208.201 290.311 206.108C290.311 202.022 288.965 198.335 286.275 195.047C283.684 191.658 279.996 189.067 275.213 187.273C270.529 185.38 265.247 184.433 259.367 184.433C249.302 184.433 241.529 186.825 236.048 191.608C230.666 196.392 227.976 203.168 227.976 211.938H284.481ZM318.56 253.495C316.068 253.495 314.823 251.9 314.823 248.711V182.041C314.823 178.852 316.068 177.258 318.56 177.258C321.151 177.258 322.446 178.852 322.446 182.041V192.655C326.134 187.672 330.618 183.885 335.9 181.294C341.281 178.603 347.161 177.258 353.539 177.258C363.106 177.258 370.331 179.749 375.214 184.732C380.197 189.715 382.688 197.04 382.688 206.706V248.711C382.688 251.9 381.393 253.495 378.802 253.495C376.31 253.495 375.065 251.9 375.065 248.711V206.706C375.065 199.033 373.321 193.402 369.833 189.815C366.345 186.227 360.914 184.433 353.539 184.433C347.36 184.433 341.929 185.679 337.245 188.17C332.561 190.562 328.924 194 326.333 198.485C323.742 202.969 322.446 208.101 322.446 213.882V248.711C322.446 251.9 321.151 253.495 318.56 253.495ZM447.315 238.995C448.212 239.692 448.66 240.49 448.66 241.387C448.66 242.184 448.311 243.081 447.614 244.077C445.72 246.868 442.98 249.16 439.392 250.954C435.904 252.648 432.267 253.495 428.48 253.495C422.5 253.495 417.717 251.601 414.129 247.814C410.641 244.028 408.897 238.945 408.897 232.567V185.48H400.227C398.633 185.48 397.487 185.23 396.789 184.732C396.091 184.134 395.743 183.237 395.743 182.041C395.743 179.849 397.237 178.753 400.227 178.753H408.897V152.145C408.897 148.956 410.193 147.361 412.784 147.361C415.275 147.361 416.521 148.956 416.521 152.145V178.753H439.093C442.083 178.753 443.578 179.849 443.578 182.041C443.578 183.237 443.229 184.134 442.531 184.732C441.834 185.23 440.687 185.48 439.093 185.48H416.521V233.165C416.521 241.935 420.507 246.32 428.48 246.32C431.27 246.32 433.662 245.871 435.655 244.974C437.648 243.978 439.641 242.333 441.634 240.041C442.83 238.746 443.976 238.098 445.072 238.098C445.87 238.098 446.617 238.397 447.315 238.995ZM497.693 253.495C484.837 253.495 474.972 250.156 468.095 243.479C461.319 236.703 457.93 227.086 457.93 214.629C457.93 207.055 459.525 200.478 462.714 194.897C465.903 189.217 470.487 184.882 476.466 181.892C482.446 178.803 489.472 177.258 497.544 177.258C505.118 177.258 511.794 178.504 517.575 180.995C523.454 183.387 528.038 186.775 531.327 191.16C534.616 195.545 536.26 200.577 536.26 206.258C536.26 210.144 535.264 213.184 533.27 215.376C531.277 217.569 528.437 218.665 524.75 218.665H466.002C466.002 227.335 468.793 234.112 474.374 238.995C479.954 243.878 487.728 246.32 497.693 246.32C503.971 246.32 509.253 245.622 513.538 244.227C517.923 242.732 521.91 240.29 525.497 236.902C527.092 235.507 528.288 234.809 529.085 234.809C529.583 234.809 530.181 235.058 530.879 235.557C531.975 236.454 532.523 237.4 532.523 238.397C532.523 239.294 532.174 240.091 531.477 240.789C527.69 244.974 522.906 248.163 517.126 250.356C511.446 252.448 504.968 253.495 497.693 253.495ZM522.657 211.938C524.75 211.938 526.245 211.49 527.142 210.593C528.038 209.696 528.487 208.201 528.487 206.108C528.487 202.022 527.142 198.335 524.451 195.047C521.86 191.658 518.172 189.067 513.389 187.273C508.705 185.38 503.423 184.433 497.544 184.433C487.478 184.433 479.705 186.825 474.224 191.608C468.843 196.392 466.152 203.168 466.152 211.938H522.657Z" fill="black"/>
</svg>
