<svg width="600" height="183" viewBox="0 0 600 183" fill="none" xmlns="http://www.w3.org/2000/svg">
<rect width="600" height="183" fill="#FFEDD5"/>
<path d="M42.3 72.725C45.8 71.325 48.925 70.625 51.675 70.625C54.475 70.625 56.775 71.5 58.575 73.25C60.425 75 61.35 77.45 61.35 80.6V113H57.6V80.6C57.6 76.25 55.45 74.075 51.15 74.075C48.45 74.075 45.525 74.825 42.375 76.325V113H38.625V70.775H42.3V72.725ZM86.8682 65C85.2182 65 84.3932 64.075 84.3932 62.225C84.3932 60.375 85.2182 59.45 86.8682 59.45C88.5182 59.45 89.3432 60.375 89.3432 62.225C89.3432 64.075 88.5182 65 86.8682 65ZM84.9932 70.775H88.7432V113H84.9932V70.775ZM112.008 80.525C112.008 73.775 116.033 70.4 124.083 70.4C126.983 70.4 129.508 70.725 131.658 71.375V74.825C129.408 74.175 126.758 73.85 123.708 73.85C120.708 73.85 118.633 74.4 117.483 75.5C116.333 76.6 115.758 78.275 115.758 80.525V103.325C115.758 105.575 116.333 107.25 117.483 108.35C118.633 109.4 120.733 109.925 123.783 109.925C126.883 109.925 129.558 109.55 131.808 108.8V112.325C129.308 113.025 126.733 113.375 124.083 113.375C116.033 113.375 112.008 110.025 112.008 103.325V80.525ZM171.943 81.5C171.943 76.1 169.318 73.4 164.068 73.4C158.818 73.4 156.193 76.1 156.193 81.5V102.275C156.193 107.675 158.818 110.375 164.068 110.375C169.318 110.375 171.943 107.675 171.943 102.275V81.5ZM152.443 81.5C152.443 78.05 153.393 75.275 155.293 73.175C157.193 71.075 160.118 70.025 164.068 70.025C168.018 70.025 170.943 71.075 172.843 73.175C174.743 75.275 175.693 78.05 175.693 81.5V102.275C175.693 105.725 174.743 108.5 172.843 110.6C170.943 112.7 168.018 113.75 164.068 113.75C160.118 113.75 157.193 112.7 155.293 110.6C153.393 108.5 152.443 105.725 152.443 102.275V81.5ZM198.976 59.525H202.726V113H198.976V59.525ZM225.99 102.575V81.575C225.99 78.125 226.94 75.35 228.84 73.25C230.79 71.1 233.74 70.025 237.69 70.025C241.64 70.025 244.565 71.1 246.465 73.25C248.415 75.35 249.39 78.125 249.39 81.575V94.1H229.74V102.575C229.74 107.425 233.065 109.85 239.715 109.85C242.415 109.85 245.19 109.425 248.04 108.575V112.25C245.49 113 242.715 113.375 239.715 113.375C230.565 113.375 225.99 109.775 225.99 102.575ZM229.74 90.725H245.64V81.575C245.64 76.125 242.99 73.4 237.69 73.4C232.39 73.4 229.74 76.125 229.74 81.575V90.725ZM316.137 70.775H320.037L310.587 113H304.587L295.137 70.775H299.037L307.587 110.6C308.537 106.2 311.387 92.925 316.137 70.775ZM340.592 101V103.325C340.592 105.625 341.117 107.325 342.167 108.425C343.267 109.475 345.092 110 347.642 110C351.292 110 354.417 108.85 357.017 106.55V91.25L347.117 94.025C344.667 94.775 342.967 95.675 342.017 96.725C341.067 97.775 340.592 99.2 340.592 101ZM348.392 70.4C356.592 70.4 360.692 73.8 360.692 80.6V113H357.017V110C356.067 110.75 355.242 111.325 354.542 111.725C352.792 112.775 350.417 113.3 347.417 113.3C340.417 113.3 336.917 109.95 336.917 103.25V100.85C336.917 95.9 339.917 92.575 345.917 90.875L357.017 87.725V80.6C357.017 78.35 356.392 76.7 355.142 75.65C353.942 74.55 351.617 74 348.167 74C344.767 74 341.667 74.5 338.867 75.5V71.75C341.667 70.85 344.842 70.4 348.392 70.4ZM384.308 59.525H388.058V113H384.308V59.525ZM411.322 102.575V81.575C411.322 78.125 412.272 75.35 414.172 73.25C416.122 71.1 419.072 70.025 423.022 70.025C426.972 70.025 429.897 71.1 431.797 73.25C433.747 75.35 434.722 78.125 434.722 81.575V94.1H415.072V102.575C415.072 107.425 418.397 109.85 425.047 109.85C427.747 109.85 430.522 109.425 433.372 108.575V112.25C430.822 113 428.047 113.375 425.047 113.375C415.897 113.375 411.322 109.775 411.322 102.575ZM415.072 90.725H430.972V81.575C430.972 76.125 428.322 73.4 423.022 73.4C417.722 73.4 415.072 76.125 415.072 81.575V90.725ZM461.237 72.725C464.737 71.325 467.862 70.625 470.612 70.625C473.412 70.625 475.712 71.5 477.512 73.25C479.362 75 480.287 77.45 480.287 80.6V113H476.537V80.6C476.537 76.25 474.387 74.075 470.087 74.075C467.387 74.075 464.462 74.825 461.312 76.325V113H457.562V70.775H461.237V72.725ZM507.305 62.975V70.775H517.58V74.15H507.305V104.3C507.305 106.3 507.78 107.725 508.73 108.575C509.68 109.425 511.18 109.85 513.23 109.85C515.28 109.85 517.005 109.6 518.405 109.1V112.55C516.905 113 514.855 113.225 512.255 113.225C509.705 113.225 507.605 112.475 505.955 110.975C504.355 109.425 503.555 107.2 503.555 104.3V74.15H498.68V70.775H503.63L504.68 62.975H507.305ZM537.17 102.575V81.575C537.17 78.125 538.12 75.35 540.02 73.25C541.97 71.1 544.92 70.025 548.87 70.025C552.82 70.025 555.745 71.1 557.645 73.25C559.595 75.35 560.57 78.125 560.57 81.575V94.1H540.92V102.575C540.92 107.425 544.245 109.85 550.895 109.85C553.595 109.85 556.37 109.425 559.22 108.575V112.25C556.67 113 553.895 113.375 550.895 113.375C541.745 113.375 537.17 109.775 537.17 102.575ZM540.92 90.725H556.82V81.575C556.82 76.125 554.17 73.4 548.87 73.4C543.57 73.4 540.92 76.125 540.92 81.575V90.725Z" fill="black"/>
</svg>
