<svg width="600" height="183" viewBox="0 0 600 183" fill="none" xmlns="http://www.w3.org/2000/svg">
<rect width="600" height="183" fill="#FFF7ED"/>
<rect x="132" width="451" height="148" fill="#C3B4A6"/>
<rect x="18" y="27" width="129" height="129" fill="#6F6E6C"/>
<path d="M55.316 75.076C58.3533 73.8067 61.1187 73.172 63.612 73.172C66.1507 73.172 68.236 73.9653 69.868 75.552C71.5 77.0933 72.316 79.292 72.316 82.148V112H67.488V82.624C67.488 79.3147 65.8107 77.66 62.456 77.66C60.3253 77.66 58.0133 78.2493 55.52 79.428V112H50.692V73.308H55.316V75.076ZM112.516 73.308H117.412L108.844 112H102.044L93.4757 73.308H98.4397L102.18 91.056L105.512 108.6C106.872 101.075 109.206 89.3107 112.516 73.308Z" fill="white"/>
<path d="M171.464 101.632V103.552C171.464 105.259 171.869 106.517 172.68 107.328C173.491 108.139 175.027 108.544 177.288 108.544C179.549 108.544 181.683 107.712 183.688 106.048V94.08L176.392 96.128C174.472 96.6827 173.171 97.3653 172.488 98.176C171.805 98.9867 171.464 100.139 171.464 101.632ZM177.224 75.264C184.477 75.264 188.104 78.3573 188.104 84.544V112H183.752V109.376C181.576 111.296 178.973 112.256 175.944 112.256C170.013 112.256 167.048 109.333 167.048 103.488V101.44C167.048 97.0027 169.629 94.0587 174.792 92.608L183.752 90.112V84.544C183.709 82.7947 183.219 81.5147 182.28 80.704C181.341 79.8933 179.443 79.488 176.584 79.488C173.768 79.488 171.165 79.9147 168.776 80.768V76.48C171.208 75.6693 174.024 75.264 177.224 75.264ZM223.1 75.392H224.7V79.744H222.524C220.988 79.744 219.601 80.1493 218.364 80.96C217.98 81.216 217.148 81.792 215.868 82.688V112H211.324V75.584H215.676V78.336C215.804 78.2507 216.124 78.016 216.636 77.632C217.19 77.248 217.51 77.0347 217.596 76.992C217.724 76.9067 218.001 76.736 218.428 76.48C218.897 76.224 219.238 76.0747 219.452 76.032C219.708 75.9467 220.049 75.84 220.476 75.712C221.116 75.4987 221.99 75.392 223.1 75.392ZM259.401 79.744H254.281C250.142 79.744 248.073 81.6853 248.073 85.568V102.656C248.073 106.24 249.801 108.032 253.257 108.032C255.774 108.032 257.822 107.328 259.401 105.92V79.744ZM253.577 75.584H263.945V121.536H259.465V110.272C257.715 111.509 255.433 112.128 252.617 112.128C246.558 112.128 243.529 109.035 243.529 102.848V85.504C243.529 82.432 244.425 80.0213 246.217 78.272C248.009 76.48 250.462 75.584 253.577 75.584ZM296.922 108.096C299.055 108.096 301.103 107.435 303.066 106.112V75.584H307.61V112H303.258V110.272C300.783 111.509 298.244 112.128 295.642 112.128C293.082 112.128 291.034 111.36 289.498 109.824C287.962 108.245 287.194 105.984 287.194 103.04V75.584H291.738V102.656C291.738 106.283 293.466 108.096 296.922 108.096ZM333.411 71.488C331.576 71.488 330.659 70.5067 330.659 68.544C330.659 66.5813 331.576 65.6 333.411 65.6C335.288 65.6 336.227 66.5813 336.227 68.544C336.227 70.5067 335.288 71.488 333.411 71.488ZM331.171 75.84H335.715V112H331.171V75.84ZM363.746 68.992V75.584H371.874V79.616H363.746V103.936C363.746 105.429 364.109 106.517 364.834 107.2C365.559 107.84 366.669 108.16 368.162 108.16C369.655 108.16 371.106 107.925 372.514 107.456V111.616C370.807 112.043 369.207 112.256 367.714 112.256C361.997 112.256 359.138 109.547 359.138 104.128V79.616H355.17V75.584H359.33L360.61 68.992H363.746ZM391.971 102.72V84.928C391.971 81.8987 392.824 79.488 394.531 77.696C396.28 75.8613 398.904 74.944 402.403 74.944C405.902 74.944 408.483 75.8613 410.147 77.696C411.854 79.488 412.707 81.8987 412.707 84.928V96.064H396.451V102.528C396.451 104.448 397.048 105.877 398.243 106.816C399.438 107.755 401.294 108.224 403.811 108.224C406.328 108.224 408.931 107.84 411.619 107.072V111.296C409.486 111.979 406.947 112.32 404.003 112.32C395.982 112.32 391.971 109.12 391.971 102.72ZM396.451 92.288H408.355V84.928C408.355 80.9173 406.371 78.912 402.403 78.912C398.435 78.912 396.451 80.9173 396.451 84.928V92.288ZM439.686 68.992V75.584H447.814V79.616H439.686V103.936C439.686 105.429 440.049 106.517 440.774 107.2C441.499 107.84 442.609 108.16 444.102 108.16C445.595 108.16 447.046 107.925 448.454 107.456V111.616C446.747 112.043 445.147 112.256 443.654 112.256C437.937 112.256 435.078 109.547 435.078 104.128V79.616H431.11V75.584H435.27L436.55 68.992H439.686ZM477.959 108.096C480.092 108.096 482.14 107.435 484.103 106.112V75.584H488.647V112H484.295V110.272C481.82 111.509 479.282 112.128 476.679 112.128C474.119 112.128 472.071 111.36 470.535 109.824C468.999 108.245 468.231 105.984 468.231 103.04V75.584H472.775V102.656C472.775 106.283 474.503 108.096 477.959 108.096ZM523.985 75.392H525.585V79.744H523.409C521.873 79.744 520.486 80.1493 519.249 80.96C518.865 81.216 518.033 81.792 516.753 82.688V112H512.209V75.584H516.561V78.336C516.689 78.2507 517.009 78.016 517.521 77.632C518.075 77.248 518.395 77.0347 518.481 76.992C518.609 76.9067 518.886 76.736 519.313 76.48C519.782 76.224 520.123 76.0747 520.337 76.032C520.593 75.9467 520.934 75.84 521.361 75.712C522.001 75.4987 522.875 75.392 523.985 75.392ZM547.102 101.632V103.552C547.102 105.259 547.507 106.517 548.318 107.328C549.128 108.139 550.664 108.544 552.926 108.544C555.187 108.544 557.32 107.712 559.326 106.048V94.08L552.03 96.128C550.11 96.6827 548.808 97.3653 548.126 98.176C547.443 98.9867 547.102 100.139 547.102 101.632ZM552.862 75.264C560.115 75.264 563.742 78.3573 563.742 84.544V112H559.39V109.376C557.214 111.296 554.611 112.256 551.582 112.256C545.651 112.256 542.686 109.333 542.686 103.488V101.44C542.686 97.0027 545.267 94.0587 550.43 92.608L559.39 90.112V84.544C559.347 82.7947 558.856 81.5147 557.918 80.704C556.979 79.8933 555.08 79.488 552.222 79.488C549.406 79.488 546.803 79.9147 544.414 80.768V76.48C546.846 75.6693 549.662 75.264 552.862 75.264Z" fill="#6F6E6C"/>
</svg>
