<svg width="1237" height="297" viewBox="0 0 1237 297" fill="none" xmlns="http://www.w3.org/2000/svg">
<rect width="1237" height="297" fill="#FFEDD5"/>
<path d="M408.571 159H401.702L363.234 98.0219C360.909 94.3231 358.901 89.8845 358.901 89.8845H358.69C358.69 89.8845 358.901 94.7458 358.901 98.9731V159H352.983V82.4868H360.169L398.109 142.514C400.434 146.213 402.547 150.546 402.547 150.546H402.759C402.759 150.546 402.653 145.684 402.653 141.351V82.4868H408.571V159ZM445.59 85.0231C445.59 87.4538 443.688 89.3561 441.257 89.3561C438.827 89.3561 436.819 87.4538 436.819 85.0231C436.819 82.5925 438.827 80.6902 441.257 80.6902C443.688 80.6902 445.59 82.5925 445.59 85.0231ZM444.322 159H438.087V102.038H444.322V159ZM508.424 156.147C504.937 158.472 500.181 160.057 494.897 160.057C483.378 160.057 470.907 151.708 470.907 130.466C470.907 109.224 483.378 100.981 494.897 100.981C500.181 100.981 505.148 102.672 508.424 104.891L506.205 109.541C503.457 107.639 499.336 106.265 495.32 106.265C486.654 106.265 477.248 112.606 477.248 130.466C477.248 148.326 486.76 154.667 495.32 154.667C499.336 154.667 503.457 153.293 506.205 151.391L508.424 156.147ZM576.516 130.466C576.516 147.269 568.484 160.057 553.055 160.057C537.625 160.057 529.594 147.269 529.594 130.466C529.594 113.663 537.625 100.981 553.055 100.981C568.484 100.981 576.516 113.663 576.516 130.466ZM570.281 130.466C570.281 116.516 564.785 106.159 553.055 106.159C541.324 106.159 535.829 116.516 535.829 130.466C535.829 144.416 541.324 154.773 553.055 154.773C564.785 154.773 570.281 144.416 570.281 130.466ZM609.338 159H603.102V76.0402H609.338V159ZM682 124.548C682 125.605 682 126.662 681.894 127.93L641.947 133.848C642.792 147.798 650.613 154.878 662.66 154.878C668.367 154.878 674.497 153.399 678.09 151.285L680.203 156.147C676.399 158.366 669.635 160.057 662.449 160.057C646.174 160.057 635.923 149.806 635.923 130.466C635.923 112.923 645.117 100.981 660.018 100.981C673.228 100.981 682 109.541 682 124.548ZM675.976 124.125C675.87 111.76 669.53 105.948 660.018 105.948C648.816 105.948 641.947 115.142 641.63 129.092L675.976 124.125ZM802.158 82.4868L776.9 159H769.925L744.667 82.4868H751.642L770.559 142.302C772.039 146.847 773.307 152.342 773.307 152.342H773.518C773.518 152.342 774.786 146.847 776.266 142.302L795.183 82.4868H802.158ZM860.308 156.147C856.398 158.366 848.472 160.057 841.391 160.057C826.49 160.057 818.881 153.399 818.881 143.042C818.881 126.45 837.058 124.337 854.284 123.385V118.418C854.284 108.801 847.838 105.948 839.383 105.948C834.099 105.948 827.758 107.639 824.165 109.541L822.263 104.891C826.384 102.883 833.359 100.981 839.806 100.981C851.748 100.981 860.308 105.737 860.308 118.841V156.147ZM854.284 152.976V128.141C840.651 128.881 824.905 129.621 824.905 142.936C824.905 150.228 830.189 155.09 841.286 155.09C846.147 155.09 851.959 154.139 854.284 152.976ZM895.441 159H889.205V76.0402H895.441V159ZM968.103 124.548C968.103 125.605 968.103 126.662 967.997 127.93L928.05 133.848C928.895 147.798 936.716 154.878 948.763 154.878C954.47 154.878 960.6 153.399 964.193 151.285L966.306 156.147C962.502 158.366 955.738 160.057 948.552 160.057C932.277 160.057 922.026 149.806 922.026 130.466C922.026 112.923 931.22 100.981 946.121 100.981C959.331 100.981 968.103 109.541 968.103 124.548ZM962.079 124.125C961.974 111.76 955.633 105.948 946.121 105.948C934.919 105.948 928.05 115.142 927.733 129.092L962.079 124.125ZM1036.03 159H1029.8V120.109C1029.8 111.655 1024.62 106.159 1014.26 106.159C1008.55 106.159 1003.59 107.216 1000.42 108.484V159H994.181V104.891C999.359 102.566 1006.44 100.981 1014.26 100.981C1028.42 100.981 1036.03 108.062 1036.03 119.792V159ZM1086.74 158.894C1085.79 159.317 1084.31 159.528 1082.3 159.528C1073.85 159.528 1067.82 154.878 1067.82 145.261V106.793H1058.95V102.038H1067.82V87.8765L1073.85 85.5515V102.038H1086.74V106.793H1073.85V145.05C1073.85 151.391 1078.18 154.033 1083.25 154.033C1084.52 154.033 1085.9 153.822 1086.74 153.505V158.894ZM1153.86 124.548C1153.86 125.605 1153.86 126.662 1153.76 127.93L1113.81 133.848C1114.65 147.798 1122.48 154.878 1134.52 154.878C1140.23 154.878 1146.36 153.399 1149.95 151.285L1152.07 156.147C1148.26 158.366 1141.5 160.057 1134.31 160.057C1118.04 160.057 1107.79 149.806 1107.79 130.466C1107.79 112.923 1116.98 100.981 1131.88 100.981C1145.09 100.981 1153.86 109.541 1153.86 124.548ZM1147.84 124.125C1147.73 111.76 1141.39 105.948 1131.88 105.948C1120.68 105.948 1113.81 115.142 1113.49 129.092L1147.84 124.125Z" fill="black"/>
<path d="M384.4 226L394.28 198.8H396.88L407.28 225.8L404.84 226.2L401.64 217.84H389.76L386.76 226H384.4ZM390.44 215.84H400.92L395.6 202L390.44 215.84ZM421.872 226V198.8H428.912C431.952 198.8 434.339 199.413 436.072 200.64C437.832 201.867 438.712 203.84 438.712 206.56C438.685 210.027 437.059 212.4 433.832 213.68L440.872 226H438.072L431.632 214.36C430.512 214.493 429.459 214.56 428.472 214.56H424.352V226H421.872ZM436.192 206.64C436.192 204.48 435.565 202.987 434.312 202.16C433.085 201.333 431.312 200.92 428.992 200.92H424.352V212.52H428.552C430.819 212.52 432.645 212.067 434.032 211.16C435.445 210.253 436.165 208.747 436.192 206.64ZM474.315 223.24L476.395 225.28L474.915 226.56L472.715 224.48C470.768 225.813 468.515 226.507 465.955 226.56C463.582 226.56 461.435 225.96 459.515 224.76C457.622 223.56 456.142 221.893 455.075 219.76C454.008 217.627 453.475 215.213 453.475 212.52C453.475 209.827 454.022 207.4 455.115 205.24C456.208 203.08 457.715 201.373 459.635 200.12C461.582 198.867 463.768 198.213 466.195 198.16C468.595 198.16 470.742 198.76 472.635 199.96C474.555 201.16 476.048 202.827 477.115 204.96C478.182 207.093 478.715 209.507 478.715 212.2C478.715 214.44 478.328 216.52 477.555 218.44C476.782 220.333 475.702 221.933 474.315 223.24ZM470.995 222.88L466.395 218.56L468.155 217.24L472.595 221.56C473.662 220.467 474.488 219.12 475.075 217.52C475.688 215.92 475.995 214.16 475.995 212.24C475.995 209.973 475.568 207.947 474.715 206.16C473.888 204.347 472.728 202.933 471.235 201.92C469.768 200.907 468.102 200.4 466.235 200.4C464.288 200.4 462.542 200.92 460.995 201.96C459.475 203 458.275 204.44 457.395 206.28C456.542 208.12 456.115 210.187 456.115 212.48C456.115 214.747 456.528 216.787 457.355 218.6C458.208 220.387 459.368 221.8 460.835 222.84C462.328 223.853 464.008 224.36 465.875 224.36C467.768 224.36 469.475 223.867 470.995 222.88ZM494.303 198.8H496.783V216.08C496.783 217.627 497.09 219.027 497.703 220.28C498.343 221.533 499.236 222.533 500.383 223.28C501.53 224 502.85 224.36 504.343 224.36C505.89 224.36 507.236 224 508.383 223.28C509.53 222.56 510.396 221.573 510.983 220.32C511.596 219.04 511.903 217.627 511.903 216.08V198.8H514.423V216.44C514.423 218.36 514.01 220.08 513.183 221.6C512.356 223.12 511.183 224.32 509.663 225.2C508.143 226.053 506.37 226.48 504.343 226.48C502.343 226.48 500.583 226.053 499.063 225.2C497.543 224.32 496.37 223.12 495.543 221.6C494.716 220.08 494.303 218.36 494.303 216.44V198.8ZM534.497 198.8V226H532.017V198.8H534.497ZM549.095 198.8H570.215L570.415 200.76H561.015V226H558.495V200.76H549.095V198.8ZM600.285 224L600.525 226H585.005V198.8H600.325L600.525 200.6H587.485V211.16H597.085L597.285 212.96H587.485V224H600.285ZM612.122 198.8H633.242L633.442 200.76H624.042V226H621.522V200.76H612.122V198.8ZM647.631 198.8H650.111V216.08C650.111 217.627 650.418 219.027 651.031 220.28C651.671 221.533 652.565 222.533 653.711 223.28C654.858 224 656.178 224.36 657.671 224.36C659.218 224.36 660.565 224 661.711 223.28C662.858 222.56 663.725 221.573 664.311 220.32C664.925 219.04 665.231 217.627 665.231 216.08V198.8H667.751V216.44C667.751 218.36 667.338 220.08 666.511 221.6C665.685 223.12 664.511 224.32 662.991 225.2C661.471 226.053 659.698 226.48 657.671 226.48C655.671 226.48 653.911 226.053 652.391 225.2C650.871 224.32 649.698 223.12 648.871 221.6C648.045 220.08 647.631 218.36 647.631 216.44V198.8ZM685.345 226V198.8H692.385C695.425 198.8 697.812 199.413 699.545 200.64C701.305 201.867 702.185 203.84 702.185 206.56C702.159 210.027 700.532 212.4 697.305 213.68L704.345 226H701.545L695.105 214.36C693.985 214.493 692.932 214.56 691.945 214.56H687.825V226H685.345ZM699.665 206.64C699.665 204.48 699.039 202.987 697.785 202.16C696.559 201.333 694.785 200.92 692.465 200.92H687.825V212.52H692.025C694.292 212.52 696.119 212.067 697.505 211.16C698.919 210.253 699.639 208.747 699.665 206.64ZM715.548 226L725.428 198.8H728.028L738.428 225.8L735.988 226.2L732.788 217.84H720.908L717.908 226H715.548ZM721.588 215.84H732.068L726.748 202L721.588 215.84ZM788.114 224L788.354 226H772.834V198.8H788.154L788.354 200.6H775.314V211.16H784.914L785.114 212.96H775.314V224H788.114ZM825.646 198.8V226H823.166V198.8H825.646ZM846.124 203.6V226H843.644V198.8H845.284L859.564 218.48L860.924 220.84V198.8H863.444V226H861.804L846.684 204.76L846.124 203.6ZM878.027 198.8H899.147L899.347 200.76H889.947V226H887.427V200.76H878.027V198.8ZM929.216 224L929.456 226H913.936V198.8H929.256L929.456 200.6H916.416V211.16H926.016L926.216 212.96H916.416V224H929.216ZM944.453 226V198.8H951.493C954.533 198.8 956.92 199.413 958.653 200.64C960.413 201.867 961.293 203.84 961.293 206.56C961.266 210.027 959.64 212.4 956.413 213.68L963.453 226H960.653L954.213 214.36C953.093 214.493 952.04 214.56 951.053 214.56H946.933V226H944.453ZM958.773 206.64C958.773 204.48 958.146 202.987 956.893 202.16C955.666 201.333 953.893 200.92 951.573 200.92H946.933V212.52H951.133C953.4 212.52 955.226 212.067 956.613 211.16C958.026 210.253 958.746 208.747 958.773 206.64ZM980.536 198.8V226H978.056V198.8H980.536ZM996.534 212.52C996.534 209.827 997.081 207.4 998.174 205.24C999.268 203.08 1000.77 201.373 1002.69 200.12C1004.64 198.867 1006.83 198.213 1009.25 198.16C1011.65 198.16 1013.8 198.76 1015.69 199.96C1017.61 201.16 1019.11 202.827 1020.17 204.96C1021.24 207.093 1021.77 209.507 1021.77 212.2C1021.77 214.893 1021.23 217.333 1020.13 219.52C1019.04 221.68 1017.52 223.387 1015.57 224.64C1013.63 225.893 1011.44 226.533 1009.01 226.56C1006.64 226.56 1004.49 225.96 1002.57 224.76C1000.68 223.56 999.201 221.893 998.134 219.76C997.068 217.627 996.534 215.213 996.534 212.52ZM1009.29 200.4C1007.35 200.4 1005.6 200.92 1004.05 201.96C1002.53 203 1001.33 204.44 1000.45 206.28C999.601 208.12 999.174 210.187 999.174 212.48C999.174 214.747 999.588 216.787 1000.41 218.6C1001.27 220.387 1002.43 221.8 1003.89 222.84C1005.39 223.853 1007.07 224.36 1008.93 224.36C1010.88 224.36 1012.61 223.84 1014.13 222.8C1015.68 221.76 1016.88 220.32 1017.73 218.48C1018.61 216.64 1019.05 214.56 1019.05 212.24C1019.05 209.973 1018.63 207.947 1017.77 206.16C1016.95 204.347 1015.79 202.933 1014.29 201.92C1012.83 200.907 1011.16 200.4 1009.29 200.4ZM1037.76 226V198.8H1044.8C1047.84 198.8 1050.23 199.413 1051.96 200.64C1053.72 201.867 1054.6 203.84 1054.6 206.56C1054.58 210.027 1052.95 212.4 1049.72 213.68L1056.76 226H1053.96L1047.52 214.36C1046.4 214.493 1045.35 214.56 1044.36 214.56H1040.24V226H1037.76ZM1052.08 206.64C1052.08 204.48 1051.46 202.987 1050.2 202.16C1048.98 201.333 1047.2 200.92 1044.88 200.92H1040.24V212.52H1044.44C1046.71 212.52 1048.54 212.067 1049.92 211.16C1051.34 210.253 1052.06 208.747 1052.08 206.64ZM1086.65 224L1086.89 226H1071.37V198.8H1086.69L1086.89 200.6H1073.85V211.16H1083.45L1083.65 212.96H1073.85V224H1086.65ZM1107.6 226.52C1106.46 226.52 1105.18 226.36 1103.76 226.04C1102.35 225.72 1101.2 225.32 1100.32 224.84L1100.92 222.92C1101.78 223.347 1102.79 223.72 1103.96 224.04C1105.14 224.333 1106.34 224.48 1107.56 224.48C1109.8 224.48 1111.54 224.027 1112.76 223.12C1114.02 222.213 1114.64 221.04 1114.64 219.6C1114.64 218.587 1114.36 217.72 1113.8 217C1113.27 216.253 1112.48 215.573 1111.44 214.96C1110.43 214.347 1109.03 213.667 1107.24 212.92C1102.34 210.84 1099.88 208.133 1099.88 204.8C1099.88 203.573 1100.23 202.453 1100.92 201.44C1101.64 200.427 1102.64 199.627 1103.92 199.04C1105.2 198.453 1106.68 198.16 1108.36 198.16C1109.62 198.16 1110.82 198.307 1111.96 198.6C1113.14 198.893 1114.18 199.267 1115.08 199.72L1114.2 201.6C1113.24 201.173 1112.35 200.84 1111.52 200.6C1110.7 200.36 1109.67 200.24 1108.44 200.24C1106.52 200.24 1105 200.653 1103.88 201.48C1102.76 202.307 1102.2 203.413 1102.2 204.8C1102.2 205.813 1102.47 206.68 1103 207.4C1103.56 208.12 1104.34 208.773 1105.32 209.36C1106.31 209.947 1107.76 210.693 1109.68 211.6C1111.47 212.427 1112.87 213.2 1113.88 213.92C1114.9 214.613 1115.67 215.413 1116.2 216.32C1116.74 217.227 1117 218.32 1117 219.6C1117 220.933 1116.63 222.133 1115.88 223.2C1115.14 224.24 1114.04 225.053 1112.6 225.64C1111.19 226.227 1109.52 226.52 1107.6 226.52Z" fill="black"/>
<path d="M163.469 207H152.852V140.784C152.852 126.39 144.036 117.033 126.402 117.033C116.686 117.033 108.229 118.832 102.831 120.992V207H92.2148V114.874C101.032 110.915 113.087 108.216 126.402 108.216C150.513 108.216 163.469 120.272 163.469 140.245V207ZM279.319 110.016L243.512 207H231.457L195.65 110.016H207.166L233.076 182.889C235.415 189.366 237.215 196.924 237.215 196.924H237.575C237.575 196.924 239.554 189.366 241.893 182.889L267.803 110.016H279.319Z" fill="black"/>
</svg>
