<svg width="600" height="313" viewBox="0 0 600 313" fill="none" xmlns="http://www.w3.org/2000/svg">
<rect width="600" height="313" fill="#FFEDD5"/>
<rect x="132" width="451" height="148" fill="#CEE291"/>
<rect x="18" y="27" width="129" height="129" fill="#6F6E6C"/>
<path d="M54.768 220.248C57.6267 219.053 60.2293 218.456 62.576 218.456C64.9653 218.456 66.928 219.203 68.464 220.696C70 222.147 70.768 224.216 70.768 226.904V255H66.224V227.352C66.224 224.237 64.6453 222.68 61.488 222.68C59.4827 222.68 57.3067 223.235 54.96 224.344V255H50.416V218.584H54.768V220.248ZM108.603 218.584H113.211L105.147 255H98.747L90.683 218.584H95.355L98.875 235.288L102.011 251.8C103.291 244.717 105.488 233.645 108.603 218.584Z" fill="#6F6E6C"/>
<path d="M55.316 75.076C58.3533 73.8067 61.1187 73.172 63.612 73.172C66.1507 73.172 68.236 73.9653 69.868 75.552C71.5 77.0933 72.316 79.292 72.316 82.148V112H67.488V82.624C67.488 79.3147 65.8107 77.66 62.456 77.66C60.3253 77.66 58.0133 78.2493 55.52 79.428V112H50.692V73.308H55.316V75.076ZM112.516 73.308H117.412L108.844 112H102.044L93.4757 73.308H98.4397L102.18 91.056L105.512 108.6C106.872 101.075 109.206 89.3107 112.516 73.308Z" fill="white"/>
<path d="M171.464 244.632V246.552C171.464 248.259 171.869 249.517 172.68 250.328C173.491 251.139 175.027 251.544 177.288 251.544C179.549 251.544 181.683 250.712 183.688 249.048V237.08L176.392 239.128C174.472 239.683 173.171 240.365 172.488 241.176C171.805 241.987 171.464 243.139 171.464 244.632ZM177.224 218.264C184.477 218.264 188.104 221.357 188.104 227.544V255H183.752V252.376C181.576 254.296 178.973 255.256 175.944 255.256C170.013 255.256 167.048 252.333 167.048 246.488V244.44C167.048 240.003 169.629 237.059 174.792 235.608L183.752 233.112V227.544C183.709 225.795 183.219 224.515 182.28 223.704C181.341 222.893 179.443 222.488 176.584 222.488C173.768 222.488 171.165 222.915 168.776 223.768V219.48C171.208 218.669 174.024 218.264 177.224 218.264ZM223.1 218.392H224.7V222.744H222.524C220.988 222.744 219.601 223.149 218.364 223.96C217.98 224.216 217.148 224.792 215.868 225.688V255H211.324V218.584H215.676V221.336C215.804 221.251 216.124 221.016 216.636 220.632C217.19 220.248 217.51 220.035 217.596 219.992C217.724 219.907 218.001 219.736 218.428 219.48C218.897 219.224 219.238 219.075 219.452 219.032C219.708 218.947 220.049 218.84 220.476 218.712C221.116 218.499 221.99 218.392 223.1 218.392ZM259.401 222.744H254.281C250.142 222.744 248.073 224.685 248.073 228.568V245.656C248.073 249.24 249.801 251.032 253.257 251.032C255.774 251.032 257.822 250.328 259.401 248.92V222.744ZM253.577 218.584H263.945V264.536H259.465V253.272C257.715 254.509 255.433 255.128 252.617 255.128C246.558 255.128 243.529 252.035 243.529 245.848V228.504C243.529 225.432 244.425 223.021 246.217 221.272C248.009 219.48 250.462 218.584 253.577 218.584ZM296.922 251.096C299.055 251.096 301.103 250.435 303.066 249.112V218.584H307.61V255H303.258V253.272C300.783 254.509 298.244 255.128 295.642 255.128C293.082 255.128 291.034 254.36 289.498 252.824C287.962 251.245 287.194 248.984 287.194 246.04V218.584H291.738V245.656C291.738 249.283 293.466 251.096 296.922 251.096ZM333.411 214.488C331.576 214.488 330.659 213.507 330.659 211.544C330.659 209.581 331.576 208.6 333.411 208.6C335.288 208.6 336.227 209.581 336.227 211.544C336.227 213.507 335.288 214.488 333.411 214.488ZM331.171 218.84H335.715V255H331.171V218.84ZM363.746 211.992V218.584H371.874V222.616H363.746V246.936C363.746 248.429 364.109 249.517 364.834 250.2C365.559 250.84 366.669 251.16 368.162 251.16C369.655 251.16 371.106 250.925 372.514 250.456V254.616C370.807 255.043 369.207 255.256 367.714 255.256C361.997 255.256 359.138 252.547 359.138 247.128V222.616H355.17V218.584H359.33L360.61 211.992H363.746ZM391.971 245.72V227.928C391.971 224.899 392.824 222.488 394.531 220.696C396.28 218.861 398.904 217.944 402.403 217.944C405.902 217.944 408.483 218.861 410.147 220.696C411.854 222.488 412.707 224.899 412.707 227.928V239.064H396.451V245.528C396.451 247.448 397.048 248.877 398.243 249.816C399.438 250.755 401.294 251.224 403.811 251.224C406.328 251.224 408.931 250.84 411.619 250.072V254.296C409.486 254.979 406.947 255.32 404.003 255.32C395.982 255.32 391.971 252.12 391.971 245.72ZM396.451 235.288H408.355V227.928C408.355 223.917 406.371 221.912 402.403 221.912C398.435 221.912 396.451 223.917 396.451 227.928V235.288ZM439.686 211.992V218.584H447.814V222.616H439.686V246.936C439.686 248.429 440.049 249.517 440.774 250.2C441.499 250.84 442.609 251.16 444.102 251.16C445.595 251.16 447.046 250.925 448.454 250.456V254.616C446.747 255.043 445.147 255.256 443.654 255.256C437.937 255.256 435.078 252.547 435.078 247.128V222.616H431.11V218.584H435.27L436.55 211.992H439.686ZM477.959 251.096C480.092 251.096 482.14 250.435 484.103 249.112V218.584H488.647V255H484.295V253.272C481.82 254.509 479.282 255.128 476.679 255.128C474.119 255.128 472.071 254.36 470.535 252.824C468.999 251.245 468.231 248.984 468.231 246.04V218.584H472.775V245.656C472.775 249.283 474.503 251.096 477.959 251.096ZM523.985 218.392H525.585V222.744H523.409C521.873 222.744 520.486 223.149 519.249 223.96C518.865 224.216 518.033 224.792 516.753 225.688V255H512.209V218.584H516.561V221.336C516.689 221.251 517.009 221.016 517.521 220.632C518.075 220.248 518.395 220.035 518.481 219.992C518.609 219.907 518.886 219.736 519.313 219.48C519.782 219.224 520.123 219.075 520.337 219.032C520.593 218.947 520.934 218.84 521.361 218.712C522.001 218.499 522.875 218.392 523.985 218.392ZM547.102 244.632V246.552C547.102 248.259 547.507 249.517 548.318 250.328C549.128 251.139 550.664 251.544 552.926 251.544C555.187 251.544 557.32 250.712 559.326 249.048V237.08L552.03 239.128C550.11 239.683 548.808 240.365 548.126 241.176C547.443 241.987 547.102 243.139 547.102 244.632ZM552.862 218.264C560.115 218.264 563.742 221.357 563.742 227.544V255H559.39V252.376C557.214 254.296 554.611 255.256 551.582 255.256C545.651 255.256 542.686 252.333 542.686 246.488V244.44C542.686 240.003 545.267 237.059 550.43 235.608L559.39 233.112V227.544C559.347 225.795 558.856 224.515 557.918 223.704C556.979 222.893 555.08 222.488 552.222 222.488C549.406 222.488 546.803 222.915 544.414 223.768V219.48C546.846 218.669 549.662 218.264 552.862 218.264Z" fill="#6F6E6C"/>
<path d="M171.464 101.632V103.552C171.464 105.259 171.869 106.517 172.68 107.328C173.491 108.139 175.027 108.544 177.288 108.544C179.549 108.544 181.683 107.712 183.688 106.048V94.08L176.392 96.128C174.472 96.6827 173.171 97.3653 172.488 98.176C171.805 98.9867 171.464 100.139 171.464 101.632ZM177.224 75.264C184.477 75.264 188.104 78.3573 188.104 84.544V112H183.752V109.376C181.576 111.296 178.973 112.256 175.944 112.256C170.013 112.256 167.048 109.333 167.048 103.488V101.44C167.048 97.0027 169.629 94.0587 174.792 92.608L183.752 90.112V84.544C183.709 82.7947 183.219 81.5147 182.28 80.704C181.341 79.8933 179.443 79.488 176.584 79.488C173.768 79.488 171.165 79.9147 168.776 80.768V76.48C171.208 75.6693 174.024 75.264 177.224 75.264ZM223.1 75.392H224.7V79.744H222.524C220.988 79.744 219.601 80.1493 218.364 80.96C217.98 81.216 217.148 81.792 215.868 82.688V112H211.324V75.584H215.676V78.336C215.804 78.2507 216.124 78.016 216.636 77.632C217.19 77.248 217.51 77.0347 217.596 76.992C217.724 76.9067 218.001 76.736 218.428 76.48C218.897 76.224 219.238 76.0747 219.452 76.032C219.708 75.9467 220.049 75.84 220.476 75.712C221.116 75.4987 221.99 75.392 223.1 75.392ZM259.401 79.744H254.281C250.142 79.744 248.073 81.6853 248.073 85.568V102.656C248.073 106.24 249.801 108.032 253.257 108.032C255.774 108.032 257.822 107.328 259.401 105.92V79.744ZM253.577 75.584H263.945V121.536H259.465V110.272C257.715 111.509 255.433 112.128 252.617 112.128C246.558 112.128 243.529 109.035 243.529 102.848V85.504C243.529 82.432 244.425 80.0213 246.217 78.272C248.009 76.48 250.462 75.584 253.577 75.584ZM296.922 108.096C299.055 108.096 301.103 107.435 303.066 106.112V75.584H307.61V112H303.258V110.272C300.783 111.509 298.244 112.128 295.642 112.128C293.082 112.128 291.034 111.36 289.498 109.824C287.962 108.245 287.194 105.984 287.194 103.04V75.584H291.738V102.656C291.738 106.283 293.466 108.096 296.922 108.096ZM333.411 71.488C331.576 71.488 330.659 70.5067 330.659 68.544C330.659 66.5813 331.576 65.6 333.411 65.6C335.288 65.6 336.227 66.5813 336.227 68.544C336.227 70.5067 335.288 71.488 333.411 71.488ZM331.171 75.84H335.715V112H331.171V75.84ZM363.746 68.992V75.584H371.874V79.616H363.746V103.936C363.746 105.429 364.109 106.517 364.834 107.2C365.559 107.84 366.669 108.16 368.162 108.16C369.655 108.16 371.106 107.925 372.514 107.456V111.616C370.807 112.043 369.207 112.256 367.714 112.256C361.997 112.256 359.138 109.547 359.138 104.128V79.616H355.17V75.584H359.33L360.61 68.992H363.746ZM391.971 102.72V84.928C391.971 81.8987 392.824 79.488 394.531 77.696C396.28 75.8613 398.904 74.944 402.403 74.944C405.902 74.944 408.483 75.8613 410.147 77.696C411.854 79.488 412.707 81.8987 412.707 84.928V96.064H396.451V102.528C396.451 104.448 397.048 105.877 398.243 106.816C399.438 107.755 401.294 108.224 403.811 108.224C406.328 108.224 408.931 107.84 411.619 107.072V111.296C409.486 111.979 406.947 112.32 404.003 112.32C395.982 112.32 391.971 109.12 391.971 102.72ZM396.451 92.288H408.355V84.928C408.355 80.9173 406.371 78.912 402.403 78.912C398.435 78.912 396.451 80.9173 396.451 84.928V92.288ZM439.686 68.992V75.584H447.814V79.616H439.686V103.936C439.686 105.429 440.049 106.517 440.774 107.2C441.499 107.84 442.609 108.16 444.102 108.16C445.595 108.16 447.046 107.925 448.454 107.456V111.616C446.747 112.043 445.147 112.256 443.654 112.256C437.937 112.256 435.078 109.547 435.078 104.128V79.616H431.11V75.584H435.27L436.55 68.992H439.686ZM477.959 108.096C480.092 108.096 482.14 107.435 484.103 106.112V75.584H488.647V112H484.295V110.272C481.82 111.509 479.282 112.128 476.679 112.128C474.119 112.128 472.071 111.36 470.535 109.824C468.999 108.245 468.231 105.984 468.231 103.04V75.584H472.775V102.656C472.775 106.283 474.503 108.096 477.959 108.096ZM523.985 75.392H525.585V79.744H523.409C521.873 79.744 520.486 80.1493 519.249 80.96C518.865 81.216 518.033 81.792 516.753 82.688V112H512.209V75.584H516.561V78.336C516.689 78.2507 517.009 78.016 517.521 77.632C518.075 77.248 518.395 77.0347 518.481 76.992C518.609 76.9067 518.886 76.736 519.313 76.48C519.782 76.224 520.123 76.0747 520.337 76.032C520.593 75.9467 520.934 75.84 521.361 75.712C522.001 75.4987 522.875 75.392 523.985 75.392ZM547.102 101.632V103.552C547.102 105.259 547.507 106.517 548.318 107.328C549.128 108.139 550.664 108.544 552.926 108.544C555.187 108.544 557.32 107.712 559.326 106.048V94.08L552.03 96.128C550.11 96.6827 548.808 97.3653 548.126 98.176C547.443 98.9867 547.102 100.139 547.102 101.632ZM552.862 75.264C560.115 75.264 563.742 78.3573 563.742 84.544V112H559.39V109.376C557.214 111.296 554.611 112.256 551.582 112.256C545.651 112.256 542.686 109.333 542.686 103.488V101.44C542.686 97.0027 545.267 94.0587 550.43 92.608L559.39 90.112V84.544C559.347 82.7947 558.856 81.5147 557.918 80.704C556.979 79.8933 555.08 79.488 552.222 79.488C549.406 79.488 546.803 79.9147 544.414 80.768V76.48C546.846 75.6693 549.662 75.264 552.862 75.264Z" fill="#6F6E6C"/>
</svg>
